<?xml version="1.0" encoding="UTF-8" standalone="no"?>
<!-- Generated by Visual Integrity Suite v6.1a -->

<svg
   xmlns:dc="http://purl.org/dc/elements/1.1/"
   xmlns:cc="http://creativecommons.org/ns#"
   xmlns:rdf="http://www.w3.org/1999/02/22-rdf-syntax-ns#"
   xmlns:svg="http://www.w3.org/2000/svg"
   xmlns="http://www.w3.org/2000/svg"
   xmlns:sodipodi="http://sodipodi.sourceforge.net/DTD/sodipodi-0.dtd"
   xmlns:inkscape="http://www.inkscape.org/namespaces/inkscape"
   xml:space="preserve"
   width="1008.0023"
   height="1008.0023"
   viewBox="0 0 592.63477 745.82087"
   id="svg3230"
   sodipodi:version="0.32"
   inkscape:version="0.91 r13725"
   sodipodi:docname="Stop_sign.svg"
   version="1.0"><metadata
     id="metadata3722"><rdf:RDF><cc:Work
         rdf:about=""><dc:format>image/svg+xml</dc:format><dc:type
           rdf:resource="http://purl.org/dc/dcmitype/StillImage" /></cc:Work></rdf:RDF></metadata><defs
     id="defs3720"><clipPath
       id="ClipId0"><path
         id="path3235"
         d="m 0,-25.33 612,0 0,792 -612,0 0,-792 z"
         inkscape:connector-curvature="0" /></clipPath></defs><sodipodi:namedview
     inkscape:window-height="1056"
     inkscape:window-width="1857"
     inkscape:pageshadow="2"
     inkscape:pageopacity="1"
     borderopacity="1"
     bordercolor="#000000"
     pagecolor="#808080"
     id="base"
     showborder="true"
     inkscape:showpageshadow="false"
     inkscape:zoom="0.373"
     inkscape:cx="84.952095"
     inkscape:cy="289.55058"
     inkscape:window-x="63"
     inkscape:window-y="24"
     inkscape:current-layer="svg3230"
     showgrid="false"
     fit-margin-top="0"
     fit-margin-left="0"
     fit-margin-right="0"
     fit-margin-bottom="0"
     inkscape:window-maximized="1" /><path
     transform="matrix(1.740285,0,0,1.740285,-276.61706,-270.61432)"
     style="fill:#c0111e;fill-opacity:1;fill-rule:evenodd;stroke:none"
     d="m 127.98,286.25 117.9,-117.9 166.86,0 117.9,117.9 0,166.86 -117.9,117.9 -166.86,0 -117.9,-117.9 0,-166.86 z"
     id="polygon3519" /><path
     id="path3523"
     d="m -17.558148,425.83048 c 0,2.19275 0,4.07226 0.313252,5.95179 l 0.626503,5.63851 c 4.385518,39.15643 34.770902,65.15629 69.541803,65.15629 37.276911,0 68.28879,-30.38539 68.28879,-70.16831 0,-27.25287 -14.09631,-57.32499 -37.590157,-76.12008 C 76.10401,350.65014 68.272727,345.63812 59.81494,340.93936 44.778873,332.79482 25.357288,327.46955 25.357288,305.8552 c 0,-14.09631 12.530055,-26.62636 27.252871,-26.62636 14.096311,0 27.252868,12.53005 27.566119,26.62636 l 34.770892,0 c 0,-33.83113 -28.505865,-62.02377 -61.397258,-62.02377 -35.084154,0 -63.590026,28.19264 -63.590026,63.59003 0,17.85534 8.4577855,35.39741 20.361337,46.3612 14.096312,12.84332 34.770902,17.22882 50.120219,29.44563 10.024045,8.14454 17.855328,19.10833 21.927596,31.6384 1.566257,5.63852 2.819262,11.27703 2.819262,17.22882 0,20.67459 -14.722813,34.45765 -32.891393,34.45765 -8.771039,0 -16.602322,-3.13252 -23.180602,-9.39755 C 23.16453,451.51709 18.77901,443.6858 19.092262,425.83048 l -36.65041,0 z"
     style="fill:#ffffff;fill-rule:evenodd;stroke:none"
     inkscape:connector-curvature="0" /><path
     transform="matrix(1.740285,0,0,1.740285,-276.61706,-270.61432)"
     style="fill:#ffffff;fill-rule:evenodd;stroke:none"
     d="m 264.42,441.77 20.34,0 0,-125.82 25.92,0 0,-18.18 -72,0 0,18.18 25.74,0 0,125.82 z"
     id="polygon3527" /><g
     id="g4910"
     transform="translate(2.3548484,2.9408875)"><path
       style="fill:#fffeff;fill-rule:evenodd;stroke:none"
       d="M 584.875 327 C 548.46517 327 516.6981 349.86629 504.84375 383.3125 C 498.06982 402.78754 487.90625 451.03992 487.90625 514.96875 C 487.90625 561.11608 497.23806 608.55785 500.625 618.71875 C 505.28208 632.26655 512.04372 644.96413 521.78125 655.125 L 524.75 658.09375 C 537.45108 670.79483 559.88206 680.53125 584.4375 680.53125 C 614.92016 680.53125 642.85845 664.02121 656.40625 640.3125 C 678.84486 601.78583 682.65625 507.80001 682.65625 498.0625 C 682.65625 415.92872 663.19647 376.54621 660.65625 372.3125 C 645.41496 343.94672 617.47449 327 584.875 327 z M 584.4375 374.84375 C 594.5984 374.84375 604.35107 378.66357 611.125 385.4375 C 618.32228 392.21142 627.63832 404.05431 632.71875 450.625 C 634.8356 465.86633 635.6875 481.10242 635.6875 496.34375 C 635.6875 543.76117 627.19133 585.69617 621.6875 600.9375 C 613.64348 624.22285 599.6818 632.6875 583.59375 632.6875 C 569.19917 632.6875 558.61767 626.33723 551.84375 614.90625 L 549.71875 610.65625 C 548.02526 607.26931 534.5 568.34246 534.5 511.1875 C 534.5 461.22987 543.79457 417.5932 548.875 404.46875 C 556.49565 382.87686 570.04293 374.84375 584.4375 374.84375 z "
       transform="matrix(0.73989995,0,0,0.73989995,-78.947898,-2.9408875)"
       id="path3521" /></g><g
     id="g4914"
     transform="translate(2.3548484,2.9408875)"><path
       style="fill:#ffffff;fill-rule:evenodd;stroke:none"
       d="M 744.46875 335.90625 L 744.46875 673.3125 L 791.46875 673.3125 L 791.46875 525.15625 L 850.3125 525.15625 C 889.6859 525.15625 928.21875 492.11037 928.21875 429.875 C 928.21875 383.72771 901.13319 337.59975 854.5625 335.90625 L 744.46875 335.90625 z M 791.90625 382.90625 L 848.625 382.90625 C 863.44294 382.90625 880.375 396.02551 880.375 428.625 C 880.375 464.61142 867.2481 475.61603 845.65625 478.15625 L 791.90625 478.15625 L 791.90625 382.90625 z "
       transform="matrix(0.73989995,0,0,0.73989995,-78.947898,-2.9408875)"
       id="path3525" /></g></svg>